<?xml version="1.0" encoding="UTF-8" standalone="no"?>
<!DOCTYPE svg PUBLIC "-//W3C//DTD SVG 1.1//EN"
 "http://www.w3.org/Graphics/SVG/1.1/DTD/svg11.dtd">
<!-- Generated by graphviz version 2.46.0 (20210119.1425)
 -->
<!-- Title: dependencies Pages: 1 -->
<svg width="2897pt" height="349pt"
 viewBox="0.00 0.00 2897.00 349.00" xmlns="http://www.w3.org/2000/svg" xmlns:xlink="http://www.w3.org/1999/xlink">
<g id="graph0" class="graph" transform="scale(1 1) rotate(0) translate(4 345)">
<title>dependencies</title>
<polygon fill="white" stroke="transparent" points="-4,4 -4,-345 2893,-345 2893,4 -4,4"/>
<text text-anchor="start" x="1423.51" y="-42.4" font-family="sans-serif" font-weight="bold" font-size="14.00">Legend</text>
<polygon fill="#ffffb3" stroke="transparent" points="1210.5,-10 1210.5,-30 1230.5,-30 1230.5,-10 1210.5,-10"/>
<text text-anchor="start" x="1234.13" y="-15.4" font-family="sans-serif" font-size="14.00"> &#160;Declarations</text>
<polygon fill="#8dd3c7" stroke="transparent" points="1323.5,-10 1323.5,-30 1343.5,-30 1343.5,-10 1323.5,-10"/>
<text text-anchor="start" x="1347.23" y="-15.4" font-family="sans-serif" font-size="14.00"> &#160;Module</text>
<polygon fill="#80b1d3" stroke="transparent" points="1409.5,-10 1409.5,-30 1429.5,-30 1429.5,-10 1409.5,-10"/>
<text text-anchor="start" x="1433.28" y="-15.4" font-family="sans-serif" font-size="14.00"> &#160;Bootstrap</text>
<polygon fill="#fdb462" stroke="transparent" points="1506.5,-10 1506.5,-30 1526.5,-30 1526.5,-10 1506.5,-10"/>
<text text-anchor="start" x="1530.17" y="-15.4" font-family="sans-serif" font-size="14.00"> &#160;Providers</text>
<polygon fill="#fb8072" stroke="transparent" points="1602.5,-10 1602.5,-30 1622.5,-30 1622.5,-10 1602.5,-10"/>
<text text-anchor="start" x="1626.23" y="-15.4" font-family="sans-serif" font-size="14.00"> &#160;Exports</text>
<g id="clust1" class="cluster">
<title>cluster_AppModule</title>
<polygon fill="none" stroke="black" stroke-dasharray="1,5" points="8,-70 8,-333 2881,-333 2881,-70 8,-70"/>
</g>
<g id="clust17" class="cluster">
<title>cluster_AppModule_imports</title>
<polygon fill="none" stroke="black" points="2623,-143 2623,-195 2873,-195 2873,-143 2623,-143"/>
</g>
<g id="clust20" class="cluster">
<title>cluster_AppModule_providers</title>
<polygon fill="none" stroke="black" points="2138,-143 2138,-195 2615,-195 2615,-143 2138,-143"/>
</g>
<g id="clust2" class="cluster">
<title>cluster_AppModule_declarations</title>
<polygon fill="none" stroke="black" points="16,-143 16,-195 2130,-195 2130,-143 16,-143"/>
</g>
<g id="clust19" class="cluster">
<title>cluster_AppModule_bootstrap</title>
<polygon fill="none" stroke="black" points="1420,-273 1420,-325 1544,-325 1544,-273 1420,-273"/>
</g>
<g id="clust3" class="cluster">
<title>cluster_AppModule_AppComponent_providers</title>
<polygon fill="none" stroke="black" points="1891,-78 1891,-130 2213,-130 2213,-78 1891,-78"/>
</g>
<!-- AppComponent -->
<g id="node1" class="node">
<title>AppComponent</title>
<polygon fill="#ffffb3" stroke="black" points="2121.94,-187 2016.06,-187 2016.06,-151 2121.94,-151 2121.94,-187"/>
<text text-anchor="middle" x="2069" y="-164.8" font-family="Times,serif" font-size="14.00">AppComponent</text>
</g>
<!-- AppModule -->
<g id="node15" class="node">
<title>AppModule</title>
<polygon fill="#8dd3c7" stroke="black" points="1523.66,-252 1520.66,-256 1499.66,-256 1496.66,-252 1440.34,-252 1440.34,-216 1523.66,-216 1523.66,-252"/>
<text text-anchor="middle" x="1482" y="-229.8" font-family="Times,serif" font-size="14.00">AppModule</text>
</g>
<!-- AppComponent&#45;&gt;AppModule -->
<g id="edge1" class="edge">
<title>AppComponent&#45;&gt;AppModule</title>
<path fill="none" stroke="black" d="M2069,-187.27C2069,-205.56 2069,-231 2069,-231 2069,-231 1533.75,-231 1533.75,-231"/>
<polygon fill="black" stroke="black" points="1533.75,-227.5 1523.75,-231 1533.74,-234.5 1533.75,-227.5"/>
</g>
<!-- ContactUsComponent -->
<g id="node2" class="node">
<title>ContactUsComponent</title>
<polygon fill="#ffffb3" stroke="black" points="1998.43,-187 1857.57,-187 1857.57,-151 1998.43,-151 1998.43,-187"/>
<text text-anchor="middle" x="1928" y="-164.8" font-family="Times,serif" font-size="14.00">ContactUsComponent</text>
</g>
<!-- ContactUsComponent&#45;&gt;AppModule -->
<g id="edge4" class="edge">
<title>ContactUsComponent&#45;&gt;AppModule</title>
<path fill="none" stroke="black" d="M1928,-187.03C1928,-204.06 1928,-227 1928,-227 1928,-227 1533.96,-227 1533.96,-227"/>
<polygon fill="black" stroke="black" points="1533.96,-223.5 1523.96,-227 1533.96,-230.5 1533.96,-223.5"/>
</g>
<!-- DashboardComponent -->
<g id="node3" class="node">
<title>DashboardComponent</title>
<polygon fill="#ffffb3" stroke="black" points="1839.97,-187 1698.03,-187 1698.03,-151 1839.97,-151 1839.97,-187"/>
<text text-anchor="middle" x="1769" y="-164.8" font-family="Times,serif" font-size="14.00">DashboardComponent</text>
</g>
<!-- DashboardComponent&#45;&gt;AppModule -->
<g id="edge5" class="edge">
<title>DashboardComponent&#45;&gt;AppModule</title>
<path fill="none" stroke="black" d="M1769,-187.01C1769,-203.05 1769,-224 1769,-224 1769,-224 1533.73,-224 1533.73,-224"/>
<polygon fill="black" stroke="black" points="1533.73,-220.5 1523.73,-224 1533.73,-227.5 1533.73,-220.5"/>
</g>
<!-- IssueComponent -->
<g id="node4" class="node">
<title>IssueComponent</title>
<polygon fill="#ffffb3" stroke="black" points="1680.1,-187 1569.9,-187 1569.9,-151 1680.1,-151 1680.1,-187"/>
<text text-anchor="middle" x="1625" y="-164.8" font-family="Times,serif" font-size="14.00">IssueComponent</text>
</g>
<!-- IssueComponent&#45;&gt;AppModule -->
<g id="edge6" class="edge">
<title>IssueComponent&#45;&gt;AppModule</title>
<path fill="none" stroke="black" d="M1625,-187.12C1625,-201.78 1625,-220 1625,-220 1625,-220 1533.75,-220 1533.75,-220"/>
<polygon fill="black" stroke="black" points="1533.75,-216.5 1523.75,-220 1533.75,-223.5 1533.75,-216.5"/>
</g>
<!-- IssueFormComponent -->
<g id="node5" class="node">
<title>IssueFormComponent</title>
<polygon fill="#ffffb3" stroke="black" points="1552.43,-187 1411.57,-187 1411.57,-151 1552.43,-151 1552.43,-187"/>
<text text-anchor="middle" x="1482" y="-164.8" font-family="Times,serif" font-size="14.00">IssueFormComponent</text>
</g>
<!-- IssueFormComponent&#45;&gt;AppModule -->
<g id="edge7" class="edge">
<title>IssueFormComponent&#45;&gt;AppModule</title>
<path fill="none" stroke="black" d="M1482,-187.11C1482,-187.11 1482,-205.99 1482,-205.99"/>
<polygon fill="black" stroke="black" points="1478.5,-205.99 1482,-215.99 1485.5,-205.99 1478.5,-205.99"/>
</g>
<!-- IssuesComponent -->
<g id="node6" class="node">
<title>IssuesComponent</title>
<polygon fill="#ffffb3" stroke="black" points="1393.54,-187 1278.46,-187 1278.46,-151 1393.54,-151 1393.54,-187"/>
<text text-anchor="middle" x="1336" y="-164.8" font-family="Times,serif" font-size="14.00">IssuesComponent</text>
</g>
<!-- IssuesComponent&#45;&gt;AppModule -->
<g id="edge8" class="edge">
<title>IssuesComponent&#45;&gt;AppModule</title>
<path fill="none" stroke="black" d="M1336,-187.12C1336,-201.78 1336,-220 1336,-220 1336,-220 1430.16,-220 1430.16,-220"/>
<polygon fill="black" stroke="black" points="1430.16,-223.5 1440.16,-220 1430.16,-216.5 1430.16,-223.5"/>
</g>
<!-- NotificationsComponent -->
<g id="node7" class="node">
<title>NotificationsComponent</title>
<polygon fill="#ffffb3" stroke="black" points="1260.43,-187 1105.57,-187 1105.57,-151 1260.43,-151 1260.43,-187"/>
<text text-anchor="middle" x="1183" y="-164.8" font-family="Times,serif" font-size="14.00">NotificationsComponent</text>
</g>
<!-- NotificationsComponent&#45;&gt;AppModule -->
<g id="edge9" class="edge">
<title>NotificationsComponent&#45;&gt;AppModule</title>
<path fill="none" stroke="black" d="M1183,-187.01C1183,-203.05 1183,-224 1183,-224 1183,-224 1430.11,-224 1430.11,-224"/>
<polygon fill="black" stroke="black" points="1430.11,-227.5 1440.11,-224 1430.11,-220.5 1430.11,-227.5"/>
</g>
<!-- OverviewComponent -->
<g id="node8" class="node">
<title>OverviewComponent</title>
<polygon fill="#ffffb3" stroke="black" points="1088.03,-187 951.97,-187 951.97,-151 1088.03,-151 1088.03,-187"/>
<text text-anchor="middle" x="1020" y="-164.8" font-family="Times,serif" font-size="14.00">OverviewComponent</text>
</g>
<!-- OverviewComponent&#45;&gt;AppModule -->
<g id="edge10" class="edge">
<title>OverviewComponent&#45;&gt;AppModule</title>
<path fill="none" stroke="black" d="M1020,-187.03C1020,-204.06 1020,-227 1020,-227 1020,-227 1430.19,-227 1430.19,-227"/>
<polygon fill="black" stroke="black" points="1430.19,-230.5 1440.19,-227 1430.19,-223.5 1430.19,-230.5"/>
</g>
<!-- PageNotFoundComponent -->
<g id="node9" class="node">
<title>PageNotFoundComponent</title>
<polygon fill="#ffffb3" stroke="black" points="933.82,-187 768.18,-187 768.18,-151 933.82,-151 933.82,-187"/>
<text text-anchor="middle" x="851" y="-164.8" font-family="Times,serif" font-size="14.00">PageNotFoundComponent</text>
</g>
<!-- PageNotFoundComponent&#45;&gt;AppModule -->
<g id="edge11" class="edge">
<title>PageNotFoundComponent&#45;&gt;AppModule</title>
<path fill="none" stroke="black" d="M851,-187.27C851,-205.56 851,-231 851,-231 851,-231 1430.11,-231 1430.11,-231"/>
<polygon fill="black" stroke="black" points="1430.11,-234.5 1440.11,-231 1430.11,-227.5 1430.11,-234.5"/>
</g>
<!-- ProjectComponent -->
<g id="node10" class="node">
<title>ProjectComponent</title>
<polygon fill="#ffffb3" stroke="black" points="750.49,-187 629.51,-187 629.51,-151 750.49,-151 750.49,-187"/>
<text text-anchor="middle" x="690" y="-164.8" font-family="Times,serif" font-size="14.00">ProjectComponent</text>
</g>
<!-- ProjectComponent&#45;&gt;AppModule -->
<g id="edge12" class="edge">
<title>ProjectComponent&#45;&gt;AppModule</title>
<path fill="none" stroke="black" d="M690,-187.11C690,-206.34 690,-234 690,-234 690,-234 1430.26,-234 1430.26,-234"/>
<polygon fill="black" stroke="black" points="1430.26,-237.5 1440.26,-234 1430.26,-230.5 1430.26,-237.5"/>
</g>
<!-- ProjectFormComponent -->
<g id="node11" class="node">
<title>ProjectFormComponent</title>
<polygon fill="#ffffb3" stroke="black" points="611.82,-187 460.18,-187 460.18,-151 611.82,-151 611.82,-187"/>
<text text-anchor="middle" x="536" y="-164.8" font-family="Times,serif" font-size="14.00">ProjectFormComponent</text>
</g>
<!-- ProjectFormComponent&#45;&gt;AppModule -->
<g id="edge13" class="edge">
<title>ProjectFormComponent&#45;&gt;AppModule</title>
<path fill="none" stroke="black" d="M536,-187.13C536,-207.57 536,-238 536,-238 536,-238 1430.13,-238 1430.13,-238"/>
<polygon fill="black" stroke="black" points="1430.13,-241.5 1440.13,-238 1430.13,-234.5 1430.13,-241.5"/>
</g>
<!-- ProjectsComponent -->
<g id="node12" class="node">
<title>ProjectsComponent</title>
<polygon fill="#ffffb3" stroke="black" points="442.43,-187 315.57,-187 315.57,-151 442.43,-151 442.43,-187"/>
<text text-anchor="middle" x="379" y="-164.8" font-family="Times,serif" font-size="14.00">ProjectsComponent</text>
</g>
<!-- ProjectsComponent&#45;&gt;AppModule -->
<g id="edge14" class="edge">
<title>ProjectsComponent&#45;&gt;AppModule</title>
<path fill="none" stroke="black" d="M379,-187.04C379,-208.66 379,-242 379,-242 379,-242 1430.11,-242 1430.11,-242"/>
<polygon fill="black" stroke="black" points="1430.11,-245.5 1440.11,-242 1430.11,-238.5 1430.11,-245.5"/>
</g>
<!-- SidebarComponent -->
<g id="node13" class="node">
<title>SidebarComponent</title>
<polygon fill="#ffffb3" stroke="black" points="298.1,-187 173.9,-187 173.9,-151 298.1,-151 298.1,-187"/>
<text text-anchor="middle" x="236" y="-164.8" font-family="Times,serif" font-size="14.00">SidebarComponent</text>
</g>
<!-- SidebarComponent&#45;&gt;AppModule -->
<g id="edge15" class="edge">
<title>SidebarComponent&#45;&gt;AppModule</title>
<path fill="none" stroke="black" d="M236,-187.01C236,-209.49 236,-245 236,-245 236,-245 1430.19,-245 1430.19,-245"/>
<polygon fill="black" stroke="black" points="1430.19,-248.5 1440.19,-245 1430.19,-241.5 1430.19,-248.5"/>
</g>
<!-- StatisticsComponent -->
<g id="node14" class="node">
<title>StatisticsComponent</title>
<polygon fill="#ffffb3" stroke="black" points="155.89,-187 24.11,-187 24.11,-151 155.89,-151 155.89,-187"/>
<text text-anchor="middle" x="90" y="-164.8" font-family="Times,serif" font-size="14.00">StatisticsComponent</text>
</g>
<!-- StatisticsComponent&#45;&gt;AppModule -->
<g id="edge16" class="edge">
<title>StatisticsComponent&#45;&gt;AppModule</title>
<path fill="none" stroke="black" d="M90,-187.15C90,-210.76 90,-249 90,-249 90,-249 1430.34,-249 1430.34,-249"/>
<polygon fill="black" stroke="black" points="1430.34,-252.5 1440.34,-249 1430.34,-245.5 1430.34,-252.5"/>
</g>
<!-- AppComponent  -->
<g id="node20" class="node">
<title>AppComponent </title>
<polygon fill="#80b1d3" stroke="black" points="1536.44,-317 1427.56,-317 1427.56,-281 1536.44,-281 1536.44,-317"/>
<text text-anchor="middle" x="1482" y="-294.8" font-family="Times,serif" font-size="14.00">AppComponent </text>
</g>
<!-- AppModule&#45;&gt;AppComponent  -->
<g id="edge19" class="edge">
<title>AppModule&#45;&gt;AppComponent </title>
<path fill="none" stroke="black" stroke-dasharray="1,5" d="M1482,-252.11C1482,-252.11 1482,-270.99 1482,-270.99"/>
<polygon fill="black" stroke="black" points="1478.5,-270.99 1482,-280.99 1485.5,-270.99 1478.5,-270.99"/>
</g>
<!-- UtilService -->
<g id="node16" class="node">
<title>UtilService</title>
<ellipse fill="#fdb462" stroke="black" cx="2150" cy="-104" rx="55.03" ry="18"/>
<text text-anchor="middle" x="2150" y="-99.8" font-family="Times,serif" font-size="14.00">UtilService</text>
</g>
<!-- UtilService&#45;&gt;AppComponent -->
<g id="edge2" class="edge">
<title>UtilService&#45;&gt;AppComponent</title>
<path fill="none" stroke="black" d="M2108.35,-115.92C2108.35,-115.92 2108.35,-140.77 2108.35,-140.77"/>
<polygon fill="black" stroke="black" points="2104.85,-140.77 2108.35,-150.77 2111.85,-140.77 2104.85,-140.77"/>
</g>
<!-- SubscriptionService -->
<g id="node17" class="node">
<title>SubscriptionService</title>
<ellipse fill="#fdb462" stroke="black" cx="1988" cy="-104" rx="88.62" ry="18"/>
<text text-anchor="middle" x="1988" y="-99.8" font-family="Times,serif" font-size="14.00">SubscriptionService</text>
</g>
<!-- SubscriptionService&#45;&gt;AppComponent -->
<g id="edge3" class="edge">
<title>SubscriptionService&#45;&gt;AppComponent</title>
<path fill="none" stroke="black" d="M2046.55,-117.78C2046.55,-117.78 2046.55,-140.55 2046.55,-140.55"/>
<polygon fill="black" stroke="black" points="2043.05,-140.55 2046.55,-150.55 2050.05,-140.55 2043.05,-140.55"/>
</g>
<!-- AppRoutingModule -->
<g id="node18" class="node">
<title>AppRoutingModule</title>
<polygon fill="#8dd3c7" stroke="black" points="2865.27,-187 2862.27,-191 2841.27,-191 2838.27,-187 2736.73,-187 2736.73,-151 2865.27,-151 2865.27,-187"/>
<text text-anchor="middle" x="2801" y="-164.8" font-family="Times,serif" font-size="14.00">AppRoutingModule</text>
</g>
<!-- AppRoutingModule&#45;&gt;AppModule -->
<g id="edge17" class="edge">
<title>AppRoutingModule&#45;&gt;AppModule</title>
<path fill="none" stroke="black" d="M2801,-187.15C2801,-210.76 2801,-249 2801,-249 2801,-249 1534.02,-249 1534.02,-249"/>
<polygon fill="black" stroke="black" points="1534.02,-245.5 1524.02,-249 1534.02,-252.5 1534.02,-245.5"/>
</g>
<!-- AuthModule -->
<g id="node19" class="node">
<title>AuthModule</title>
<polygon fill="#8dd3c7" stroke="black" points="2718.55,-187 2715.55,-191 2694.55,-191 2691.55,-187 2631.45,-187 2631.45,-151 2718.55,-151 2718.55,-187"/>
<text text-anchor="middle" x="2675" y="-164.8" font-family="Times,serif" font-size="14.00">AuthModule</text>
</g>
<!-- AuthModule&#45;&gt;AppModule -->
<g id="edge18" class="edge">
<title>AuthModule&#45;&gt;AppModule</title>
<path fill="none" stroke="black" d="M2675,-187.01C2675,-209.49 2675,-245 2675,-245 2675,-245 1533.76,-245 1533.76,-245"/>
<polygon fill="black" stroke="black" points="1533.76,-241.5 1523.76,-245 1533.76,-248.5 1533.76,-241.5"/>
</g>
<!-- AuthInterceptor -->
<g id="node21" class="node">
<title>AuthInterceptor</title>
<ellipse fill="#fdb462" stroke="black" cx="2534" cy="-169" rx="72.91" ry="18"/>
<text text-anchor="middle" x="2534" y="-164.8" font-family="Times,serif" font-size="14.00">AuthInterceptor</text>
</g>
<!-- AuthInterceptor&#45;&gt;AppModule -->
<g id="edge20" class="edge">
<title>AuthInterceptor&#45;&gt;AppModule</title>
<path fill="none" stroke="black" d="M2534,-187.04C2534,-208.66 2534,-242 2534,-242 2534,-242 1533.89,-242 1533.89,-242"/>
<polygon fill="black" stroke="black" points="1533.89,-238.5 1523.89,-242 1533.89,-245.5 1533.89,-238.5"/>
</g>
<!-- ErrorInterceptor -->
<g id="node22" class="node">
<title>ErrorInterceptor</title>
<ellipse fill="#fdb462" stroke="black" cx="2370" cy="-169" rx="73.53" ry="18"/>
<text text-anchor="middle" x="2370" y="-164.8" font-family="Times,serif" font-size="14.00">ErrorInterceptor</text>
</g>
<!-- ErrorInterceptor&#45;&gt;AppModule -->
<g id="edge21" class="edge">
<title>ErrorInterceptor&#45;&gt;AppModule</title>
<path fill="none" stroke="black" d="M2370,-187.13C2370,-207.57 2370,-238 2370,-238 2370,-238 1533.94,-238 1533.94,-238"/>
<polygon fill="black" stroke="black" points="1533.94,-234.5 1523.94,-238 1533.94,-241.5 1533.94,-234.5"/>
</g>
<!-- SocketService -->
<g id="node23" class="node">
<title>SocketService</title>
<ellipse fill="#fdb462" stroke="black" cx="2212" cy="-169" rx="66.05" ry="18"/>
<text text-anchor="middle" x="2212" y="-164.8" font-family="Times,serif" font-size="14.00">SocketService</text>
</g>
<!-- SocketService&#45;&gt;AppModule -->
<g id="edge22" class="edge">
<title>SocketService&#45;&gt;AppModule</title>
<path fill="none" stroke="black" d="M2212,-187.11C2212,-206.34 2212,-234 2212,-234 2212,-234 1533.87,-234 1533.87,-234"/>
<polygon fill="black" stroke="black" points="1533.87,-230.5 1523.87,-234 1533.87,-237.5 1533.87,-230.5"/>
</g>
</g>
</svg>
