<?xml version="1.0" encoding="UTF-8" standalone="no"?>
<!DOCTYPE svg PUBLIC "-//W3C//DTD SVG 1.1//EN"
 "http://www.w3.org/Graphics/SVG/1.1/DTD/svg11.dtd">
<!-- Generated by graphviz version 2.46.0 (20210119.1425)
 -->
<!-- Title: dependencies Pages: 1 -->
<svg width="1205pt" height="284pt"
 viewBox="0.00 0.00 1205.00 284.00" xmlns="http://www.w3.org/2000/svg" xmlns:xlink="http://www.w3.org/1999/xlink">
<g id="graph0" class="graph" transform="scale(1 1) rotate(0) translate(4 280)">
<title>dependencies</title>
<polygon fill="white" stroke="transparent" points="-4,4 -4,-280 1201,-280 1201,4 -4,4"/>
<text text-anchor="start" x="577.51" y="-42.4" font-family="sans-serif" font-weight="bold" font-size="14.00">Legend</text>
<polygon fill="#ffffb3" stroke="transparent" points="364.5,-10 364.5,-30 384.5,-30 384.5,-10 364.5,-10"/>
<text text-anchor="start" x="388.13" y="-15.4" font-family="sans-serif" font-size="14.00"> &#160;Declarations</text>
<polygon fill="#8dd3c7" stroke="transparent" points="477.5,-10 477.5,-30 497.5,-30 497.5,-10 477.5,-10"/>
<text text-anchor="start" x="501.23" y="-15.4" font-family="sans-serif" font-size="14.00"> &#160;Module</text>
<polygon fill="#80b1d3" stroke="transparent" points="563.5,-10 563.5,-30 583.5,-30 583.5,-10 563.5,-10"/>
<text text-anchor="start" x="587.28" y="-15.4" font-family="sans-serif" font-size="14.00"> &#160;Bootstrap</text>
<polygon fill="#fdb462" stroke="transparent" points="660.5,-10 660.5,-30 680.5,-30 680.5,-10 660.5,-10"/>
<text text-anchor="start" x="684.17" y="-15.4" font-family="sans-serif" font-size="14.00"> &#160;Providers</text>
<polygon fill="#fb8072" stroke="transparent" points="756.5,-10 756.5,-30 776.5,-30 776.5,-10 756.5,-10"/>
<text text-anchor="start" x="780.23" y="-15.4" font-family="sans-serif" font-size="14.00"> &#160;Exports</text>
<g id="clust1" class="cluster">
<title>cluster_AuthModule</title>
<polygon fill="none" stroke="black" stroke-dasharray="1,5" points="8,-70 8,-268 1189,-268 1189,-70 8,-70"/>
</g>
<g id="clust11" class="cluster">
<title>cluster_AuthModule_providers</title>
<polygon fill="none" stroke="black" points="983,-78 983,-130 1181,-130 1181,-78 983,-78"/>
</g>
<g id="clust8" class="cluster">
<title>cluster_AuthModule_imports</title>
<polygon fill="none" stroke="black" points="827,-78 827,-130 975,-130 975,-78 827,-78"/>
</g>
<g id="clust9" class="cluster">
<title>cluster_AuthModule_exports</title>
<polygon fill="none" stroke="black" points="167,-208 167,-260 989,-260 989,-208 167,-208"/>
</g>
<g id="clust2" class="cluster">
<title>cluster_AuthModule_declarations</title>
<polygon fill="none" stroke="black" points="16,-78 16,-130 819,-130 819,-78 16,-78"/>
</g>
<!-- ForgotPasswordComponent -->
<g id="node1" class="node">
<title>ForgotPasswordComponent</title>
<polygon fill="#ffffb3" stroke="black" points="811.32,-122 638.68,-122 638.68,-86 811.32,-86 811.32,-122"/>
<text text-anchor="middle" x="725" y="-99.8" font-family="Times,serif" font-size="14.00">ForgotPasswordComponent</text>
</g>
<!-- AuthModule -->
<g id="node6" class="node">
<title>AuthModule</title>
<polygon fill="#8dd3c7" stroke="black" points="581.55,-187 578.55,-191 557.55,-191 554.55,-187 494.45,-187 494.45,-151 581.55,-151 581.55,-187"/>
<text text-anchor="middle" x="538" y="-164.8" font-family="Times,serif" font-size="14.00">AuthModule</text>
</g>
<!-- ForgotPasswordComponent&#45;&gt;AuthModule -->
<g id="edge1" class="edge">
<title>ForgotPasswordComponent&#45;&gt;AuthModule</title>
<path fill="none" stroke="black" d="M712.82,-122.24C712.82,-137.57 712.82,-157 712.82,-157 712.82,-157 591.66,-157 591.66,-157"/>
<polygon fill="black" stroke="black" points="591.66,-153.5 581.66,-157 591.66,-160.5 591.66,-153.5"/>
</g>
<!-- ResetPasswordComponent -->
<g id="node2" class="node">
<title>ResetPasswordComponent</title>
<polygon fill="#ffffb3" stroke="black" points="621.09,-122 454.91,-122 454.91,-86 621.09,-86 621.09,-122"/>
<text text-anchor="middle" x="538" y="-99.8" font-family="Times,serif" font-size="14.00">ResetPasswordComponent</text>
</g>
<!-- ResetPasswordComponent&#45;&gt;AuthModule -->
<g id="edge2" class="edge">
<title>ResetPasswordComponent&#45;&gt;AuthModule</title>
<path fill="none" stroke="black" d="M538,-122.11C538,-122.11 538,-140.99 538,-140.99"/>
<polygon fill="black" stroke="black" points="534.5,-140.99 538,-150.99 541.5,-140.99 534.5,-140.99"/>
</g>
<!-- SignInComponent -->
<g id="node3" class="node">
<title>SignInComponent</title>
<polygon fill="#ffffb3" stroke="black" points="437.17,-122 318.83,-122 318.83,-86 437.17,-86 437.17,-122"/>
<text text-anchor="middle" x="378" y="-99.8" font-family="Times,serif" font-size="14.00">SignInComponent</text>
</g>
<!-- SignInComponent&#45;&gt;AuthModule -->
<g id="edge3" class="edge">
<title>SignInComponent&#45;&gt;AuthModule</title>
<path fill="none" stroke="black" d="M384.26,-122.24C384.26,-137.57 384.26,-157 384.26,-157 384.26,-157 484.36,-157 484.36,-157"/>
<polygon fill="black" stroke="black" points="484.36,-160.5 494.36,-157 484.36,-153.5 484.36,-160.5"/>
</g>
<!-- SignUpComponent -->
<g id="node4" class="node">
<title>SignUpComponent</title>
<polygon fill="#ffffb3" stroke="black" points="301.11,-122 176.89,-122 176.89,-86 301.11,-86 301.11,-122"/>
<text text-anchor="middle" x="239" y="-99.8" font-family="Times,serif" font-size="14.00">SignUpComponent</text>
</g>
<!-- SignUpComponent&#45;&gt;AuthModule -->
<g id="edge4" class="edge">
<title>SignUpComponent&#45;&gt;AuthModule</title>
<path fill="none" stroke="black" d="M239,-122.02C239,-139.37 239,-163 239,-163 239,-163 484.2,-163 484.2,-163"/>
<polygon fill="black" stroke="black" points="484.2,-166.5 494.2,-163 484.2,-159.5 484.2,-166.5"/>
</g>
<!-- WelcomeComponent -->
<g id="node5" class="node">
<title>WelcomeComponent</title>
<polygon fill="#ffffb3" stroke="black" points="158.47,-122 23.53,-122 23.53,-86 158.47,-86 158.47,-122"/>
<text text-anchor="middle" x="91" y="-99.8" font-family="Times,serif" font-size="14.00">WelcomeComponent</text>
</g>
<!-- WelcomeComponent&#45;&gt;AuthModule -->
<g id="edge5" class="edge">
<title>WelcomeComponent&#45;&gt;AuthModule</title>
<path fill="none" stroke="black" d="M91,-122.11C91,-141.34 91,-169 91,-169 91,-169 484.33,-169 484.33,-169"/>
<polygon fill="black" stroke="black" points="484.33,-172.5 494.33,-169 484.33,-165.5 484.33,-172.5"/>
</g>
<!-- ForgotPasswordComponent  -->
<g id="node8" class="node">
<title>ForgotPasswordComponent </title>
<polygon fill="#fb8072" stroke="black" points="980.82,-252 805.18,-252 805.18,-216 980.82,-216 980.82,-252"/>
<text text-anchor="middle" x="893" y="-229.8" font-family="Times,serif" font-size="14.00">ForgotPasswordComponent </text>
</g>
<!-- AuthModule&#45;&gt;ForgotPasswordComponent  -->
<g id="edge7" class="edge">
<title>AuthModule&#45;&gt;ForgotPasswordComponent </title>
<path fill="none" stroke="black" stroke-dasharray="5,2" d="M581.58,-175C661.4,-175 822.91,-175 822.91,-175 822.91,-175 822.91,-205.98 822.91,-205.98"/>
<polygon fill="black" stroke="black" points="819.41,-205.98 822.91,-215.98 826.41,-205.98 819.41,-205.98"/>
</g>
<!-- ResetPasswordComponent  -->
<g id="node9" class="node">
<title>ResetPasswordComponent </title>
<polygon fill="#fb8072" stroke="black" points="786.59,-252 617.41,-252 617.41,-216 786.59,-216 786.59,-252"/>
<text text-anchor="middle" x="702" y="-229.8" font-family="Times,serif" font-size="14.00">ResetPasswordComponent </text>
</g>
<!-- AuthModule&#45;&gt;ResetPasswordComponent  -->
<g id="edge8" class="edge">
<title>AuthModule&#45;&gt;ResetPasswordComponent </title>
<path fill="none" stroke="black" stroke-dasharray="5,2" d="M581.82,-181C605.5,-181 629.94,-181 629.94,-181 629.94,-181 629.94,-205.76 629.94,-205.76"/>
<polygon fill="black" stroke="black" points="626.44,-205.76 629.94,-215.76 633.44,-205.76 626.44,-205.76"/>
</g>
<!-- SignInComponent  -->
<g id="node10" class="node">
<title>SignInComponent </title>
<polygon fill="#fb8072" stroke="black" points="599.17,-252 476.83,-252 476.83,-216 599.17,-216 599.17,-252"/>
<text text-anchor="middle" x="538" y="-229.8" font-family="Times,serif" font-size="14.00">SignInComponent </text>
</g>
<!-- AuthModule&#45;&gt;SignInComponent  -->
<g id="edge9" class="edge">
<title>AuthModule&#45;&gt;SignInComponent </title>
<path fill="none" stroke="black" stroke-dasharray="5,2" d="M538,-187.11C538,-187.11 538,-205.99 538,-205.99"/>
<polygon fill="black" stroke="black" points="534.5,-205.99 538,-215.99 541.5,-205.99 534.5,-205.99"/>
</g>
<!-- SignUpComponent  -->
<g id="node11" class="node">
<title>SignUpComponent </title>
<polygon fill="#fb8072" stroke="black" points="458.61,-252 331.39,-252 331.39,-216 458.61,-216 458.61,-252"/>
<text text-anchor="middle" x="395" y="-229.8" font-family="Times,serif" font-size="14.00">SignUpComponent </text>
</g>
<!-- AuthModule&#45;&gt;SignUpComponent  -->
<g id="edge10" class="edge">
<title>AuthModule&#45;&gt;SignUpComponent </title>
<path fill="none" stroke="black" stroke-dasharray="5,2" d="M494.22,-181C470.57,-181 446.14,-181 446.14,-181 446.14,-181 446.14,-205.76 446.14,-205.76"/>
<polygon fill="black" stroke="black" points="442.64,-205.76 446.14,-215.76 449.64,-205.76 442.64,-205.76"/>
</g>
<!-- WelcomeComponent  -->
<g id="node12" class="node">
<title>WelcomeComponent </title>
<polygon fill="#fb8072" stroke="black" points="313.47,-252 174.53,-252 174.53,-216 313.47,-216 313.47,-252"/>
<text text-anchor="middle" x="244" y="-229.8" font-family="Times,serif" font-size="14.00">WelcomeComponent </text>
</g>
<!-- AuthModule&#45;&gt;WelcomeComponent  -->
<g id="edge11" class="edge">
<title>AuthModule&#45;&gt;WelcomeComponent </title>
<path fill="none" stroke="black" stroke-dasharray="5,2" d="M494.31,-175C427.38,-175 307.15,-175 307.15,-175 307.15,-175 307.15,-205.98 307.15,-205.98"/>
<polygon fill="black" stroke="black" points="303.65,-205.98 307.15,-215.98 310.65,-205.98 303.65,-205.98"/>
</g>
<!-- AuthRoutingModule -->
<g id="node7" class="node">
<title>AuthRoutingModule</title>
<polygon fill="#8dd3c7" stroke="black" points="967.17,-122 964.17,-126 943.17,-126 940.17,-122 834.83,-122 834.83,-86 967.17,-86 967.17,-122"/>
<text text-anchor="middle" x="901" y="-99.8" font-family="Times,serif" font-size="14.00">AuthRoutingModule</text>
</g>
<!-- AuthRoutingModule&#45;&gt;AuthModule -->
<g id="edge6" class="edge">
<title>AuthRoutingModule&#45;&gt;AuthModule</title>
<path fill="none" stroke="black" d="M901,-122.02C901,-139.37 901,-163 901,-163 901,-163 591.79,-163 591.79,-163"/>
<polygon fill="black" stroke="black" points="591.79,-159.5 581.79,-163 591.79,-166.5 591.79,-159.5"/>
</g>
<!-- AnimateTextService -->
<g id="node13" class="node">
<title>AnimateTextService</title>
<ellipse fill="#fdb462" stroke="black" cx="1082" cy="-104" rx="90.89" ry="18"/>
<text text-anchor="middle" x="1082" y="-99.8" font-family="Times,serif" font-size="14.00">AnimateTextService</text>
</g>
<!-- AnimateTextService&#45;&gt;AuthModule -->
<g id="edge12" class="edge">
<title>AnimateTextService&#45;&gt;AuthModule</title>
<path fill="none" stroke="black" d="M1082,-122.11C1082,-141.34 1082,-169 1082,-169 1082,-169 591.6,-169 591.6,-169"/>
<polygon fill="black" stroke="black" points="591.6,-165.5 581.6,-169 591.6,-172.5 591.6,-165.5"/>
</g>
</g>
</svg>
